<svg width="19" height="20" viewBox="0 0 19 20" fill="none" xmlns="http://www.w3.org/2000/svg">
<path d="M6.75 1.75H3.08333C2.5971 1.75 2.13079 1.94315 1.78697 2.28697C1.44315 2.63079 1.25 3.0971 1.25 3.58333V7.25M6.75 1.75H15.9167C16.4029 1.75 16.8692 1.94315 17.213 2.28697C17.5568 2.63079 17.75 3.0971 17.75 3.58333V7.25M6.75 1.75V18.25M1.25 7.25V16.4167C1.25 16.9029 1.44315 17.3692 1.78697 17.713C2.13079 18.0568 2.5971 18.25 3.08333 18.25H6.75M1.25 7.25H17.75M17.75 7.25V16.4167C17.75 16.9029 17.5568 17.3692 17.213 17.713C16.8692 18.0568 16.4029 18.25 15.9167 18.25H6.75" stroke="#888888" stroke-width="2" stroke-linecap="round" stroke-linejoin="round"/>
</svg>
