<svg width="19" height="22" viewBox="0 0 19 22" fill="none" xmlns="http://www.w3.org/2000/svg">
<path d="M11.0858 19.25C10.9247 19.5279 10.6934 19.7585 10.415 19.9188C10.1367 20.0791 9.82118 20.1635 9.5 20.1635C9.17882 20.1635 8.86327 20.0791 8.58496 19.9188C8.30664 19.7585 8.07533 19.5279 7.91417 19.25M15 7.33337C15 5.87468 14.4205 4.47574 13.3891 3.44429C12.3576 2.41284 10.9587 1.83337 9.5 1.83337C8.04131 1.83337 6.64236 2.41284 5.61091 3.44429C4.57946 4.47574 4 5.87468 4 7.33337C4 13.75 1.25 15.5834 1.25 15.5834H17.75C17.75 15.5834 15 13.75 15 7.33337Z" stroke="#888888" stroke-width="2" stroke-linecap="round" stroke-linejoin="round"/>
</svg>
