<svg width="19" height="18" viewBox="0 0 19 18" fill="none" xmlns="http://www.w3.org/2000/svg">
<path d="M16.8375 7.42044L9.962 1.16977C9.83544 1.05471 9.67054 0.990961 9.4995 0.990967C9.32847 0.990973 9.16357 1.05473 9.03702 1.1698L2.16249 7.42044C2.09163 7.48488 2.035 7.56341 1.99626 7.65101C1.95751 7.7386 1.9375 7.83333 1.9375 7.92911V15.875C1.9375 16.0574 2.00993 16.2322 2.13886 16.3612C2.2678 16.4901 2.44266 16.5625 2.625 16.5625H16.375C16.5573 16.5625 16.7322 16.4901 16.8611 16.3612C16.9901 16.2322 17.0625 16.0574 17.0625 15.875V7.92914C17.0625 7.83335 17.0425 7.73862 17.0037 7.65101C16.965 7.56341 16.9084 7.48488 16.8375 7.42044Z" stroke="#888888" stroke-width="2" stroke-linecap="round" stroke-linejoin="round"/>
</svg>
